<svg width="50" height="50" viewBox="0 0 50 50" fill="none" xmlns="http://www.w3.org/2000/svg">
<path d="M23.1036 18.2253C22.9479 17.7568 22.7907 17.2844 22.7879 17.2783C22.7129 17.0966 22.5393 16.9822 22.3564 17.0023C22.2407 17.0123 19.5029 17.2674 17.7486 18.7942C16.8314 19.7111 15 25.0715 15 29.706C15 29.7879 15.0193 29.8676 15.0571 29.9387C16.3221 32.3429 19.7707 32.9722 20.5564 32.9992C20.5614 33 20.5657 33 20.57 33C20.7086 33 20.8386 32.9281 20.9214 32.8067L21.7714 31.5606C20.3671 31.3294 20.1136 31.0279 20.0543 30.9808C19.7371 30.728 19.5029 30.3739 19.7871 29.9271C20.0057 29.58 20.4643 29.4656 20.8157 29.6612C21.1757 29.8428 22.1393 30.4273 25 30.4118C27.8407 30.4025 29.0879 29.7586 29.1057 29.7446C29.5829 29.5119 29.955 29.6078 30.1871 29.9526C30.4636 30.4218 30.2664 30.7396 29.9507 30.9916C29.8914 31.0387 29.7479 31.1709 28.2393 31.5575L29.0786 32.806C29.1607 32.9281 29.2914 32.9992 29.43 32.9992C29.435 32.9992 29.4393 32.9992 29.4436 32.9985C30.23 32.9714 33.6786 32.3421 34.9429 29.9379C34.9807 29.8668 35 29.7872 35 29.7052C35 25.0715 33.1686 19.7111 32.2286 18.7741C30.4971 17.2682 27.7593 17.0131 27.6436 17.0023C27.4607 16.9853 27.2871 17.0974 27.2121 17.2783C27.2093 17.2844 27.0564 17.7645 26.9086 18.2276C26.9086 18.2276 25.7436 18.0428 25 18.0428C24.2564 18.0428 23.1036 18.2253 23.1036 18.2253ZM22.1429 28.0926C21.3536 28.0926 20.7143 27.0621 20.7143 25.7897C20.7143 24.5172 21.3536 23.4867 22.1429 23.4867C22.935 23.3592 23.5543 24.5172 23.5714 25.7897C23.5714 27.0621 22.9321 28.0926 22.1429 28.0926ZM27.8571 28.0926C27.0679 28.0926 26.4286 27.0552 26.4286 25.7757C26.4286 24.4963 27.0679 23.4589 27.8571 23.4589C28.6464 23.4589 29.2857 24.4963 29.2857 25.7757C29.2857 27.0552 28.6464 28.0926 27.8571 28.0926Z" fill="white"/>
<circle opacity="0.2" cx="25" cy="25.0001" r="24" transform="rotate(-90 25 25.0001)" stroke="white" stroke-width="2"/>
</svg>
